<svg width="140" height="38" viewBox="0 0 140 38" fill="none" xmlns="http://www.w3.org/2000/svg">
<path d="M7.15998 3.27999V31H0.599976V3.27999H7.15998Z" fill="#000014"/>
<path d="M19.6787 9.07998C21.1987 9.07998 22.6254 9.30665 23.9587 9.75999C25.2921 10.2133 26.4654 10.8533 27.4787 11.68L25.1587 15.24C23.4254 14.1467 21.6787 13.6 19.9187 13.6C19.0921 13.6 18.4521 13.7467 17.9987 14.04C17.5721 14.3067 17.3587 14.6933 17.3587 15.2C17.3587 15.6 17.4521 15.9333 17.6387 16.2C17.8521 16.44 18.2654 16.6933 18.8787 16.96C19.4921 17.2267 20.4387 17.5467 21.7187 17.92C23.9321 18.56 25.5721 19.4 26.6387 20.44C27.7321 21.4533 28.2787 22.8667 28.2787 24.68C28.2787 26.12 27.8654 27.3733 27.0387 28.44C26.2121 29.48 25.0787 30.28 23.6387 30.84C22.1987 31.4 20.5987 31.68 18.8387 31.68C17.0521 31.68 15.3854 31.4 13.8387 30.84C12.3187 30.28 11.0254 29.5067 9.95872 28.52L13.0387 25.08C14.8254 26.4667 16.7054 27.16 18.6787 27.16C19.6387 27.16 20.3854 26.9867 20.9187 26.64C21.4787 26.2933 21.7587 25.8 21.7587 25.16C21.7587 24.6533 21.6521 24.2533 21.4387 23.96C21.2254 23.6667 20.8121 23.4 20.1987 23.16C19.5854 22.8933 18.6121 22.5733 17.2787 22.2C15.1721 21.5867 13.5987 20.7333 12.5587 19.64C11.5187 18.5467 10.9987 17.1867 10.9987 15.56C10.9987 14.3333 11.3454 13.24 12.0387 12.28C12.7587 11.2933 13.7721 10.52 15.0787 9.95999C16.4121 9.37332 17.9454 9.07998 19.6787 9.07998Z" fill="#000014"/>
<path d="M55.0147 9.07998C56.6947 9.07998 58.0413 9.65332 59.0547 10.8C60.068 11.92 60.5747 13.48 60.5747 15.48V31H54.2547V16.56C54.2547 14.6667 53.6547 13.72 52.4547 13.72C51.788 13.72 51.2013 13.9467 50.6947 14.4C50.188 14.8533 49.6947 15.5467 49.2147 16.48V31H42.8947V16.56C42.8947 14.6667 42.2947 13.72 41.0947 13.72C40.4547 13.72 39.868 13.96 39.3347 14.44C38.828 14.8933 38.3347 15.5733 37.8547 16.48V31H31.5347V9.75999H37.0547L37.4947 12.24C38.3213 11.1733 39.228 10.3867 40.2147 9.87999C41.228 9.34665 42.3747 9.07998 43.6547 9.07998C44.8547 9.07998 45.8813 9.37332 46.7347 9.95999C47.6147 10.5467 48.2547 11.3733 48.6547 12.44C49.508 11.2933 50.4413 10.4533 51.4547 9.91999C52.4947 9.35999 53.6813 9.07998 55.0147 9.07998Z" fill="#000014"/>
<path d="M82.2037 24.84C82.2037 25.64 82.3104 26.2267 82.5237 26.6C82.7637 26.9733 83.1371 27.2533 83.6437 27.44L82.3237 31.56C81.0171 31.4533 79.9504 31.1733 79.1237 30.72C78.2971 30.24 77.6571 29.4933 77.2037 28.48C75.8171 30.6133 73.6837 31.68 70.8037 31.68C68.6971 31.68 67.0171 31.0667 65.7637 29.84C64.5104 28.6133 63.8837 27.0133 63.8837 25.04C63.8837 22.72 64.7371 20.9467 66.4437 19.72C68.1504 18.4933 70.6171 17.88 73.8437 17.88H76.0037V16.96C76.0037 15.7067 75.7371 14.8533 75.2037 14.4C74.6704 13.92 73.7371 13.68 72.4037 13.68C71.7104 13.68 70.8704 13.7867 69.8837 14C68.8971 14.1867 67.8837 14.4533 66.8437 14.8L65.4037 10.64C66.7371 10.1333 68.0971 9.74665 69.4837 9.47998C70.8971 9.21332 72.2037 9.07998 73.4037 9.07998C76.4437 9.07998 78.6704 9.70665 80.0837 10.96C81.4971 12.2133 82.2037 14.0933 82.2037 16.6V24.84ZM72.6437 27.16C74.0837 27.16 75.2037 26.48 76.0037 25.12V21.36H74.4437C73.0037 21.36 71.9237 21.6133 71.2037 22.12C70.5104 22.6267 70.1637 23.4133 70.1637 24.48C70.1637 25.3333 70.3771 26 70.8037 26.48C71.2571 26.9333 71.8704 27.16 72.6437 27.16Z" fill="#000014"/>
<path d="M105.758 19.96C105.758 20.84 105.718 21.6 105.638 22.24H92.4778C92.6911 24.0267 93.1978 25.28 93.9978 26C94.7978 26.72 95.9045 27.08 97.3178 27.08C98.1711 27.08 98.9978 26.9333 99.7978 26.64C100.598 26.32 101.464 25.84 102.398 25.2L104.998 28.72C102.518 30.6933 99.7578 31.68 96.7178 31.68C93.2778 31.68 90.6378 30.6667 88.7978 28.64C86.9578 26.6133 86.0378 23.8933 86.0378 20.48C86.0378 18.32 86.4245 16.3867 87.1978 14.68C87.9711 12.9467 89.1045 11.5867 90.5978 10.6C92.0911 9.58665 93.8778 9.07998 95.9578 9.07998C99.0245 9.07998 101.424 10.04 103.158 11.96C104.891 13.88 105.758 16.5467 105.758 19.96ZM99.5578 18.16C99.5045 14.9067 98.3578 13.28 96.1178 13.28C95.0245 13.28 94.1711 13.68 93.5578 14.48C92.9711 15.28 92.6111 16.6 92.4778 18.44H99.5578V18.16Z" fill="#000014"/>
<path d="M114.948 31.68C113.108 31.68 111.668 31.16 110.628 30.12C109.615 29.0533 109.108 27.5467 109.108 25.6V1.31998L115.428 0.639984V25.36C115.428 26.24 115.788 26.68 116.508 26.68C116.881 26.68 117.228 26.6133 117.548 26.48L118.788 30.96C117.641 31.44 116.361 31.68 114.948 31.68Z" fill="#000014"/>
<path d="M119.103 37.84V32.88H139.103V37.84H119.103Z" fill="#2A43BB"/>
</svg>
